<svg xmlns="http://www.w3.org/2000/svg" viewBox="0 0 512 512" xml:space="preserve"><path style="fill:#ff6243" d="M291.853 504.425H55.226l-45.13-351.43h242.601z"/><path style="opacity:.4;fill:#891c00;enable-background:new" d="m101.072 152.995 24.934 351.43H87.944l-45.13-351.43zM246.004 504.425l17.488-136.182 52.125 136.126zM232.875 152.995l-24.932 351.43H166.92v-351.43z"/><path style="fill:#ffe477" d="M26.242 152.884s-15.653-8.584-6.059-20.702 16.663-5.554 19.188-21.712c0 0-1.367-11.135 6.919-21.133 10.527-12.7 20.853-10.678 20.853-10.678C82.29 63.511 85.824 35.74 110.061 39.274s26.257 4.548 34.336-12.623c8.079-17.172 25.358-26.257 45.752-8.079s4.741 34.336 17.87 35.345c13.128 1.01 23.227-15.148 39.89-5.049s31.811 17.168 18.178 26.257c-13.633 9.089 2.02 21.207 14.138 19.188 12.118-2.02 6.059 33.326 18.683 32.821 12.623-.505 11.42 25.862 11.42 25.862l-284.086-.112z"/><g style="opacity:.54"><path style="fill:#eebf00" d="M299.816 127.133c-12.623.505-6.564-34.841-18.683-32.821-12.118 2.02-27.771-10.099-14.138-19.188 13.633-9.089-1.515-16.158-18.178-26.257-15.96-9.673-25.899 4.732-38.246 5.079 12.593 7.571 20.903 13.69 9.671 21.178-13.633 9.089 2.02 21.207 14.138 19.188 12.118-2.02 6.059 33.326 18.683 32.821 12.528-.501 11.438 25.455 11.421 25.844l46.753.018c-.002 0 1.202-26.367-11.421-25.862zM162.174 53.917c13.128 1.01 23.227-15.148 39.89-5.049l1.132.682c-1.352-6.165 2.357-18.058-12.138-30.978-18.486-16.476-34.411-10.554-43.247 3.486 14.984 16.711 2.081 30.914 14.363 31.859z"/></g><path style="fill:#52a2e7" d="m256.648 277.664-8.075-84.248h238.739l-29.803 310.953H278.377l-15.676-163.552z"/><path style="fill:#ff6243" d="M429.894 28.077 413.427 11.61l-54.983 55.156h.001v91.823h23.287V76.411z"/><path style="fill:#3c66b1" d="M390.821 193.386s-22.879 31.82-22.879 128.186 76.053 69.542 76.053 182.797h-49.827c0-113.255-76.053-86.431-76.053-182.797s22.879-128.186 22.879-128.186h49.827z"/><path style="fill:#c6c3cb" d="M471.583 149.88h18.208l12.115 43.506H236.982l12.115-43.506h161.92z"/><path style="opacity:.43;fill:#3c66b1;enable-background:new" d="M489.791 149.88h-34.793l12.115 43.506h-14.688l-29.709 309.973h34.793l29.709-309.973h14.688z"/><g style="opacity:.4"><path style="fill:#891c00" d="M358.444 111.268h23.288v38.617h-23.288z"/></g><path d="M85.408 138.279a7.579 7.579 0 0 0 7.329-5.684c.027-.107 3.11-10.795 10.683-12.132 3.937-.695 6.591-.656 8.934-.624 5.945.083 10.601-.387 16.272-7.241.539-.651 1.114-1.367 1.724-2.131 7.145-8.927 13.904-16.044 24.256-12.69 5.049 1.636 8.669 3.81 12.169 5.914 7.899 4.747 16.069 9.656 33.004 3.177a7.576 7.576 0 0 0-5.414-14.149c-10.043 3.843-12.895 2.129-19.786-2.012-3.833-2.304-8.605-5.172-15.303-7.342-21.154-6.855-34.39 9.688-40.751 17.636-.555.695-1.077 1.346-1.566 1.939-1.149 1.389-1.668 1.681-1.659 1.682-.363.101-1.675.084-2.73.068-2.715-.037-6.431-.09-11.781.854-17.313 3.054-22.506 22.44-22.718 23.263a7.573 7.573 0 0 0 5.441 9.226 7.422 7.422 0 0 0 1.896.246z"/><path d="m509.202 191.354-12.114-43.506a7.573 7.573 0 0 0-7.296-5.542h-18.208a7.573 7.573 0 0 0-7.574 7.574 7.573 7.573 0 0 0 7.574 7.574h12.455l7.896 28.358h-244.98l7.896-28.358h156.167a7.573 7.573 0 0 0 7.574-7.574 7.573 7.573 0 0 0-7.574-7.574h-21.71V79.541l45.952-46.118a7.575 7.575 0 0 0-.01-10.703L418.782 6.252a7.576 7.576 0 0 0-5.355-2.218h-.006a7.575 7.575 0 0 0-5.358 2.227L353.08 61.419a7.576 7.576 0 0 0-2.21 5.347v75.54h-30.876c-1.614-10.308-7.195-23.678-20.407-23.794-1.149-2.052-2.158-7.501-2.784-10.887-.847-4.574-1.723-9.304-3.418-13.118-4.147-9.33-11.457-9.19-14.405-8.702-4.742.795-9.651-2.178-10.522-3.815.228-.314.77-.892 1.831-1.599 5.878-3.918 8.79-8.526 8.654-13.697-.247-9.385-9.945-15.137-22.223-22.421a573.134 573.134 0 0 1-4.884-2.919c-13.681-8.292-24.606-3.129-32.584.64-3.66 1.73-6.869 3.246-9.73 3.352a83.908 83.908 0 0 1-.075-1.992c-.212-7.207-.568-19.271-14.256-31.473C181.622-.21 169.912-.939 162.474.581c-10.465 2.138-19.32 9.883-24.932 21.81-2.617 5.561-4.708 9.396-6.41 10.034-2.404.903-8.667-.02-17.331-1.293l-2.649-.389c-21.341-3.108-30.724 12.832-38.264 25.645-3.357 5.705-6.828 11.603-11.105 15.88A7.575 7.575 0 0 0 72.494 82.98c5.641-5.642 9.611-12.387 13.448-18.91 7.727-13.127 12.259-19.912 23.022-18.336l2.632.386c12.116 1.779 18.79 2.762 24.851.49 7.257-2.721 10.712-9.081 14.799-17.77 3.475-7.385 8.671-12.276 14.256-13.417 7.325-1.493 14.703 3.399 19.604 7.767 8.819 7.861 9.018 14.634 9.194 20.61.149 5.083.462 15.658 13.134 16.633 7.087.55 13.038-2.263 18.284-4.741 7.584-3.584 11.842-5.272 18.261-1.382 1.694 1.027 3.372 2.022 5.007 2.992 4.807 2.852 11.761 6.977 14.196 9.524-.315.265-.738.587-1.301.961-7.601 5.069-10.446 12.378-7.608 19.554 3.417 8.641 14.774 14.616 25.421 13.633.875 2.201 1.687 6.59 2.21 9.409 1.755 9.477 4.401 23.773 17.302 23.282l.076-.002c2.349 0 4.211 4.377 5.23 8.643h-55.418a7.563 7.563 0 0 0-6.104 3.114H30.229c-.115-.072-.226-.147-.345-.213-1.163-.638-4.7-3.277-5.188-5.689-.075-.368-.302-1.491 1.425-3.672 2.923-3.692 5.246-4.907 7.937-6.316 6.07-3.176 10.867-6.586 12.796-18.928a7.575 7.575 0 0 0-6.314-8.653c-4.124-.645-8.006 2.181-8.653 6.314-.903 5.78-1.506 6.096-4.851 7.847-3.32 1.737-7.869 4.116-12.791 10.334-5.035 6.361-5.17 12.256-4.395 16.081.205 1.015.509 1.972.86 2.894h-.615a7.576 7.576 0 0 0-7.513 8.538l45.131 351.43a7.574 7.574 0 0 0 7.512 6.61h32.687l.021.001.015-.001h158.048l.015.001.021-.001h45.819c.301 0 .595-.022.887-.057h164.769a7.576 7.576 0 0 0 7.54-6.851l29.15-304.131h7.707a7.574 7.574 0 0 0 7.298-9.604zM366.018 69.895l47.417-47.567 5.757 5.757-42.825 42.979a7.579 7.579 0 0 0-2.209 5.346v65.895h-8.141l.001-72.41zm-80.759 426.9L270.24 340.094c-.4-4.164-4.105-7.223-8.262-6.817a7.574 7.574 0 0 0-6.817 8.263l14.885 155.311h-15.435l8.257-64.297a7.574 7.574 0 0 0-6.548-8.477c-4.152-.539-7.945 2.398-8.477 6.547l-8.505 66.227h-23.267l20.993-295.891h4.622l7.422 77.427a7.57 7.57 0 0 0 8.263 6.817 7.575 7.575 0 0 0 6.817-8.263l-7.279-75.951h71.72c-7.21 17.061-18.087 53.853-18.087 120.581 0 49.33 19.262 68.995 37.889 88.013 18.708 19.099 36.413 37.215 38.031 87.209H285.259v.002zm-110.765.056V160.569h50.251l-23.859 336.283h-26.392zm-41.432 0-23.859-336.283h50.143v336.283h-26.284zm-38.454 0L51.423 160.569h42.593l23.859 336.283H94.608zm264.644-97.865c-18.009-18.387-33.563-34.267-33.563-77.414 0-75.653 14.45-110.494 19.652-120.581h33.114c-7.211 17.061-18.087 53.853-18.087 120.581 0 49.33 19.262 68.995 37.889 88.013 18.708 19.099 36.413 37.215 38.031 87.209H401.61c-1.77-56.332-23.276-78.328-42.358-97.808zM18.704 160.569h17.447l43.185 336.283H61.889L18.704 160.569zm432.477 330.438c-3.017-52.079-23.688-73.223-42.1-92.021-18.01-18.387-33.563-34.267-33.563-77.414 0-75.653 14.45-110.494 19.652-120.581h83.808l-27.797 290.016z"/></svg>